<?xml version="1.0" standalone="no"?>
<!DOCTYPE svg PUBLIC "-//W3C//DTD SVG 20010904//EN"
 "http://www.w3.org/TR/2001/REC-SVG-20010904/DTD/svg10.dtd">
<svg version="1.0" xmlns="http://www.w3.org/2000/svg"
 width="190.000000pt" height="190.000000pt" viewBox="0 0 190.000000 190.000000"
 preserveAspectRatio="xMidYMid meet">
<metadata>
Created by potrace 1.14, written by Peter Selinger 2001-2017
</metadata>
<g transform="translate(0.000000,190.000000) scale(0.100000,-0.100000)"
fill="#000000" stroke="none">
<path d="M250 1458 c-25 -5 -59 -7 -77 -4 -53 8 -58 -8 -59 -184 -1 -86 -4
-202 -8 -256 -23 -358 -25 -506 -7 -528 15 -17 49 -9 55 13 3 9 5 57 5 106 -1
136 2 205 10 209 4 3 38 7 76 11 39 3 77 8 86 11 16 5 28 -11 81 -106 89 -158
143 -240 160 -240 24 0 50 42 41 66 -4 10 -46 80 -95 155 -48 76 -88 141 -88
144 0 4 21 31 48 59 137 152 172 334 88 463 -27 41 -66 63 -140 79 -70 15
-112 16 -176 2z m201 -90 c39 -13 99 -103 99 -148 0 -32 -47 -166 -71 -203
-26 -39 -81 -80 -129 -96 -50 -16 -172 -24 -180 -12 -3 6 -5 45 -4 88 2 43 3
137 4 210 l2 131 26 11 c73 29 196 38 253 19z"/>
<path d="M722 1458 c-16 -20 -23 -115 -27 -393 -6 -351 8 -431 92 -533 59 -72
133 -88 212 -48 94 49 138 176 166 481 4 38 9 78 12 90 2 11 6 96 7 188 3 148
1 171 -14 190 -14 17 -21 19 -32 9 -11 -9 -15 -44 -16 -154 -1 -79 -4 -163 -6
-188 -4 -41 -16 -174 -21 -225 -21 -223 -80 -316 -194 -307 -54 4 -127 106
-140 197 -8 56 -7 514 2 602 4 40 4 79 1 88 -7 18 -28 20 -42 3z"/>
<path d="M1538 1428 c-22 -34 -91 -257 -154 -498 -30 -118 -67 -255 -80 -304
-36 -127 -41 -178 -19 -196 15 -12 19 -12 30 4 8 10 28 77 45 150 35 149 47
178 75 183 30 5 255 7 258 2 2 -2 16 -56 31 -119 37 -156 35 -150 56 -150 21
0 42 31 35 52 -2 7 -6 29 -9 48 -3 19 -14 64 -25 100 -11 36 -56 210 -101 388
-44 178 -85 332 -90 343 -14 25 -34 24 -52 -3z m73 -343 c17 -66 32 -128 34
-138 3 -10 7 -27 10 -38 9 -27 -31 -41 -125 -43 -77 -3 -103 1 -96 13 3 3 28
92 56 196 29 105 55 194 58 199 7 13 27 -44 63 -189z"/>
</g>
</svg>
